<mxfile host="app.diagrams.net" agent="Mozilla/5.0 (Windows NT 10.0; Win64; x64) AppleWebKit/537.36 (KHTML, like Gecko) Chrome/129.0.0.0 Safari/537.36" version="24.7.16">
  <diagram name="Página-1" id="aCCuVh1Njn9KdrE25EnY">
    <mxGraphModel dx="1050" dy="530" grid="1" gridSize="10" guides="1" tooltips="1" connect="1" arrows="1" fold="1" page="1" pageScale="1" pageWidth="827" pageHeight="1169" math="0" shadow="0">
      <root>
        <mxCell id="0" />
        <mxCell id="1" parent="0" />
        <mxCell id="vhcZ_Tk78GsyyLaiv-12-1" value="NETSMS" style="shape=cylinder3;whiteSpace=wrap;html=1;boundedLbl=1;backgroundOutline=1;size=15;hachureGap=4;fontFamily=Helvetica;verticalAlign=top;" parent="1" vertex="1">
          <mxGeometry x="314" y="200" width="200" height="140" as="geometry" />
        </mxCell>
        <mxCell id="vhcZ_Tk78GsyyLaiv-12-2" value="Usuário" style="shape=umlActor;verticalLabelPosition=bottom;verticalAlign=top;html=1;outlineConnect=0;hachureGap=4;fontFamily=Helvetica;" parent="1" vertex="1">
          <mxGeometry x="60" y="50" width="30" height="60" as="geometry" />
        </mxCell>
        <mxCell id="vhcZ_Tk78GsyyLaiv-12-3" value="De-Para SVAs" style="shape=document;whiteSpace=wrap;html=1;boundedLbl=1;hachureGap=4;fontFamily=Helvetica;" parent="1" vertex="1">
          <mxGeometry x="210" y="51" width="120" height="80" as="geometry" />
        </mxCell>
        <mxCell id="vhcZ_Tk78GsyyLaiv-12-4" style="edgeStyle=orthogonalEdgeStyle;rounded=0;hachureGap=4;orthogonalLoop=1;jettySize=auto;html=1;entryX=0.027;entryY=0.36;entryDx=0;entryDy=0;entryPerimeter=0;fontFamily=Architects Daughter;fontSource=https%3A%2F%2Ffonts.googleapis.com%2Fcss%3Ffamily%3DArchitects%2BDaughter;" parent="1" source="vhcZ_Tk78GsyyLaiv-12-2" target="vhcZ_Tk78GsyyLaiv-12-3" edge="1">
          <mxGeometry relative="1" as="geometry" />
        </mxCell>
        <mxCell id="vhcZ_Tk78GsyyLaiv-12-5" style="edgeStyle=orthogonalEdgeStyle;rounded=0;hachureGap=4;orthogonalLoop=1;jettySize=auto;html=1;entryX=0;entryY=0.5;entryDx=0;entryDy=0;entryPerimeter=0;fontFamily=Architects Daughter;fontSource=https%3A%2F%2Ffonts.googleapis.com%2Fcss%3Ffamily%3DArchitects%2BDaughter;" parent="1" source="vhcZ_Tk78GsyyLaiv-12-3" target="vhcZ_Tk78GsyyLaiv-12-1" edge="1">
          <mxGeometry relative="1" as="geometry" />
        </mxCell>
        <mxCell id="2dQWSfNBZxbQwETPpIpz-1" value="Carga em tabela" style="edgeLabel;html=1;align=center;verticalAlign=middle;resizable=0;points=[];sketch=1;hachureGap=4;jiggle=2;curveFitting=1;fontFamily=Helvetica;" vertex="1" connectable="0" parent="vhcZ_Tk78GsyyLaiv-12-5">
          <mxGeometry x="-0.3792" y="1" relative="1" as="geometry">
            <mxPoint as="offset" />
          </mxGeometry>
        </mxCell>
        <mxCell id="2dQWSfNBZxbQwETPpIpz-4" style="edgeStyle=orthogonalEdgeStyle;rounded=0;hachureGap=4;orthogonalLoop=1;jettySize=auto;html=1;fontFamily=Architects Daughter;fontSource=https%3A%2F%2Ffonts.googleapis.com%2Fcss%3Ffamily%3DArchitects%2BDaughter;" edge="1" parent="1" source="2dQWSfNBZxbQwETPpIpz-3" target="vhcZ_Tk78GsyyLaiv-12-1">
          <mxGeometry relative="1" as="geometry" />
        </mxCell>
        <mxCell id="2dQWSfNBZxbQwETPpIpz-3" value="JOB Alteração contratos" style="rounded=1;whiteSpace=wrap;html=1;hachureGap=4;fontFamily=Helvetica;" vertex="1" parent="1">
          <mxGeometry x="440" y="51" width="120" height="60" as="geometry" />
        </mxCell>
      </root>
    </mxGraphModel>
  </diagram>
</mxfile>
